<?xml version="1.0" encoding="UTF-8"?> <svg xmlns="http://www.w3.org/2000/svg" viewBox="0 0 57.68 51.56"><defs><style>.cls-1{fill:#444;}.cls-2{fill:#fff;}</style></defs><title>Logo</title><g id="Layer_2" data-name="Layer 2"><g id="Layer_1-2" data-name="Layer 1"><path class="cls-1" d="M6.81.85V.77c.26,0,.51,0,.72,0A2.36,2.36,0,0,1,7.79,1c.29-.1.58-.14.87-.21l.93.11L9.92.7c.22-.07.65-.11.83-.18.4,0,.76,0,1.16,0,.18,0,.4.19.61.15s.22-.11.36-.15a.93.93,0,0,1,.33,0A7.85,7.85,0,0,1,15.34.38a9.93,9.93,0,0,1,1.09,0,1.28,1.28,0,0,1,.36.07c.18,0,.43-.14.57-.18A4.51,4.51,0,0,1,18.49.3c.46.15.28.44.5.76s.47.44.65.69.18.65.51.83,1.52-.07,1.91.07c0,0,.08,0,.15-.07a1.21,1.21,0,0,1,.36.07,8.43,8.43,0,0,0,.87,0,5,5,0,0,0,1.22.07s.08-.11.08-.11a3.45,3.45,0,0,1,1.12-.07c.36.07.58,0,1,.07a8.47,8.47,0,0,0,4.08,0c.29,0,.62,0,.91-.07s.54.14.79.18a4.3,4.3,0,0,0,1.19,0c.26,0,.47,0,.73,0s.65-.26,1-.37a2.38,2.38,0,0,1,1.23.15,4.76,4.76,0,0,0,.69,0c.11,0,.18,0,.25,0a4.31,4.31,0,0,1,1.19,0,1.65,1.65,0,0,1,.15.94.61.61,0,0,1,.14.11h.33c0-.14.07-.54,0-.68a1.37,1.37,0,0,0,.18-.69c-.1-.11-.18-.25-.28-.36s-.15-.4-.29-.44a1.12,1.12,0,0,1-.33-.28A3.47,3.47,0,0,1,39.52,0a.6.6,0,0,1,.36,0c.18,0,.36,0,.51,0L41,.16h.36a10.35,10.35,0,0,1,2.17.36,8.12,8.12,0,0,1,.58,1.59,5.62,5.62,0,0,0,.29,1.16c.11.18.36.21.5.4a5.53,5.53,0,0,0,.29,1.15,3.2,3.2,0,0,0,.25.83s0,0,0,.07a5,5,0,0,0,.25,1c.11.33.62.62.65.87s0,.58.11,1A7.92,7.92,0,0,0,47,9.63c.15.29.08.61.18.9s.51.69.65,1.05a6.7,6.7,0,0,0,.62,1.48c.18.29.58.51.76.8.36.57.5,1.37.86,2,.11.14.26.18.37.29s0,.18.07.25.61.58.61.58a.27.27,0,0,0,.15,0,6.89,6.89,0,0,1,1.23.94.81.81,0,0,1,.07.44c-.29.28-.36.75-.69,1a9.12,9.12,0,0,0,.65,2.32c.11.39-.14,1,.15,1.33s1.15.51,1.37.94a2.23,2.23,0,0,1,.07.47c0,.11.11.26.15.36s0,.29.07.47c.18.51.69.87.9,1.45V27a7.85,7.85,0,0,1,.18.83c.15.33.47.58.62.91a14.2,14.2,0,0,0,.61,1.37,4.19,4.19,0,0,1,.47.69c.11.25,0,.39.15.65a2.36,2.36,0,0,1,.25,1.15c-.07.36,0,.65-.11,1a1.8,1.8,0,0,0,0,.62c0,.22,0,.43,0,.69s.22.57.29.9a7.88,7.88,0,0,1-.29,2.24,1.2,1.2,0,0,0,0,.36c0,.15,0,.29,0,.47a2.71,2.71,0,0,1,0,1.59,2.81,2.81,0,0,1-.08.29c-.14.29-.72.18-.83.47s.11,1,0,1.45c0,.1-.18.21-.22.32a2,2,0,0,0-.07.51,2.38,2.38,0,0,1-.51,1.23c-.14.14-.4.1-.58.21s-.18.22-.29.33a4,4,0,0,1-.9.39c-.36.15-.87-.25-1.12-.14s-.5.58-.72.72c-.69.4-1.92.11-2-.61,0-.07,0-.15,0-.22V44.32c0-.25.15-.5,0-.79s-.32-.26-.4-.44a.51.51,0,0,0,0-.21c-.08-.11-.18-.33-.29-.4a5.85,5.85,0,0,1-.62-.54c-.14-.29-.36-.44-.5-.69s-.11-.4-.22-.51-.47-.07-.69-.14-.36-.29-.61-.36c-.11.11-.22.11-.36.21s-.07.29-.36.33a4.48,4.48,0,0,1-.91-.76c-.1-.22-.14-.5-.25-.72s-.32-.25-.4-.4c-.14-.36.18-.69.08-1.08-.08-.22-.29-.29-.4-.47s-.29-.51-.44-.8c-.07-.14-.1-.4-.25-.47h-.25c-.18.22-.22.07-.4.15s-.29.32-.61.29c-.11-.08-.29,0-.4-.11a2.5,2.5,0,0,1-.43-1.48,1.42,1.42,0,0,1-.69-1.27,5.76,5.76,0,0,1-.76-.9c0-.11,0-.22,0-.33-.11-.32-.21-.65-.29-1s-.57-.4-.72-.69c-.25-.47-.29-1.05-.58-1.48a2.27,2.27,0,0,0-.76-.58c-.18-.11-.36-.11-.39-.36s0-.33,0-.51c.58-.18,1.12-1.08,1.38-1.66.07-.14,0-.33.14-.47s.36-.18.43-.33a.26.26,0,0,1,0-.18,1.13,1.13,0,0,0-.25-.29c-.54,0-.76-.36-1.12-.32a0,0,0,0,0,0,0c.22.18.51.32.72.5A2.63,2.63,0,0,1,38,26.32a2.09,2.09,0,0,0-.25.26c-.15.29-.47.68-.83.43a1.21,1.21,0,0,1-.26-.47v-.18a2,2,0,0,1-.5-1.55c0-.08,0-.18-.08-.26a1.41,1.41,0,0,0,.15-.61c0-.18-.29-.25-.29-.47A2.49,2.49,0,0,0,36,23a5.13,5.13,0,0,1,.29-1.62,4.51,4.51,0,0,0,.07-.73A1.86,1.86,0,0,1,36.3,20c0-.11.15-.26.22-.4s.07-.29.14-.47a.71.71,0,0,1,.15-.15c0-.14,0-.28,0-.39a2.71,2.71,0,0,0,0-1.41c-.15,0-.33,0-.44-.15s-.1-.32-.18-.5a9,9,0,0,0-.79-1.81,3.13,3.13,0,0,0-.83-.54c-.18,0-.36,0-.55,0a8.48,8.48,0,0,1-1.33-.72c-.26-.18-.4-1-.73-1-.1-.08-.25,0-.39,0a1.74,1.74,0,0,1-.91-.4c-.25-.25-.21-.79-.43-1.08-.11-.07-.22-.11-.32-.18-.26-.22-.19-.33-.33-.62a2.92,2.92,0,0,0-.4-.39c-.14-.26-.14-.65-.36-.83s-.72-.22-1.05-.37L27,8.11c-.14-.11-.21-.29-.43-.36a4.54,4.54,0,0,0-2.24.4c0,.21,0,.57,0,.68s-.18.18-.29.29a2.06,2.06,0,0,0-.83-.18,3.53,3.53,0,0,1-.5.87,5.92,5.92,0,0,1-.83.43.38.38,0,0,1-.15.18,2.94,2.94,0,0,1-1.34.8,3.14,3.14,0,0,1-1.12-.07.82.82,0,0,0-.47-.11c-.47.11-.68.58-1.22.58-.11-.08-.22,0-.37-.11a1.61,1.61,0,0,0-.25-.29c0-.29-.14-1.3-.4-1.48s-.39-.11-.57-.22-.33-.54-.62-.69-.54,0-.83-.14c-.51-.33-1-.76-1.52-1.09a11.36,11.36,0,0,0-1.91-.86c-.18-.08-.47,0-.69,0L8.87,6.34a9.26,9.26,0,0,1-1.8.32,2.64,2.64,0,0,1-1.2-.14c-.11,0-.18-.18-.4-.14a10.58,10.58,0,0,0-1.12.39c-.68.22-1.19.26-1.8.51-.22.11-.26.36-.58.4,0,0-.07,0-.07,0a.29.29,0,0,0-.15-.14,1.78,1.78,0,0,1,.07-1,12.41,12.41,0,0,0-.25-1.27c0-.14.15-1.08.11-1.15C.81,3.3-.45,3.48.16,1.79a2.57,2.57,0,0,1,.33-.65,15.64,15.64,0,0,0,3.43-.08c.25,0,.54.26.9.18a7.79,7.79,0,0,1,2-.39M57.26,42a7.52,7.52,0,0,0-1,1.55,5.26,5.26,0,0,0-.11.58,7.25,7.25,0,0,1-.68,1.63c-.08.11,0,.21-.11.29-.22.25-1.27.57-1.09,1-.14.4-1.33.8-1,1.34a.64.64,0,0,0,.5.18c.29,0,.36-.25.55-.4a5.26,5.26,0,0,0,1.08-1.08c.07-.11.11-.22.18-.32a1.24,1.24,0,0,0,.76-.8,1.33,1.33,0,0,0,0-.4A5.76,5.76,0,0,1,57,44.54c.07-.18,0-.4.11-.58a4.63,4.63,0,0,1,.29-.65,2.64,2.64,0,0,0,.14-.43c0-.18-.07-.4,0-.55s0,0,0-.07h-.08s0,0,0-.07a.27.27,0,0,0-.22-.18m-4.48,6.47a11.65,11.65,0,0,0-1.23.61,2.55,2.55,0,0,0-.68.58.65.65,0,0,0,.18.4c.65.07.54-.15,1-.29.11,0,.18.07.25,0,.4,0,.44-.39.62-.68.07-.11.25-.11.36-.18a.45.45,0,0,0,0-.26.67.67,0,0,0-.47-.21m-3.94.72c-.14.07-.25.11-.43.18a2.8,2.8,0,0,0-.62.94,8,8,0,0,0-1,.4c-.18.14-.33.32-.51.47a.55.55,0,0,0,.11.36,3,3,0,0,0,1.52-.43c.21-.11.39-.4.65-.51h.79A3.21,3.21,0,0,0,50.43,50a.61.61,0,0,0,0-.25c-.37-.43-.55-.07-.91-.22A1.12,1.12,0,0,1,49,49.2h-.18"></path><path d="M8.24,22.27l-1.61.32L8.17,12.48l4.77-.93L12.72,13l-3.16.61-.41,2.73,2.34-.46-.22,1.44-2.34.46Z"></path><path d="M14.75,19.61,18,19l-.22,1.44-4.81.94,1.53-10.11,1.61-.31Z"></path><path d="M25.47,15.79a5.11,5.11,0,0,1-1,2.52,4,4,0,0,1-2.4,1.41c-1,.19-1.73,0-2.1-.54a3.11,3.11,0,0,1-.23-2.28l.56-3.68a5,5,0,0,1,1-2.51A3.88,3.88,0,0,1,23.7,9.3a1.92,1.92,0,0,1,2.1.53A3.11,3.11,0,0,1,26,12.11Zm-4.07.77a2.36,2.36,0,0,0,0,1.34.79.79,0,0,0,.95.34,1.73,1.73,0,0,0,1.11-.74,3.11,3.11,0,0,0,.41-1.42l.55-3.63c.13-.81.13-1,0-1.34a.81.81,0,0,0-1-.34,1.78,1.78,0,0,0-1.11.75A3.34,3.34,0,0,0,22,12.94Z"></path><path d="M28.62,18.3,27,18.61,28.55,8.5,31.06,8a2.37,2.37,0,0,1,2,.2,2,2,0,0,1,.59,2.11,4,4,0,0,1-1.8,2.9l.83,4.29L31,17.84,30.22,14l-1,.18Zm1.45-5.71A2.22,2.22,0,0,0,31.36,12a2.24,2.24,0,0,0,.58-1.31,1.26,1.26,0,0,0-.21-1.14c-.21-.19-.51-.2-1.2-.07l-.59.12-.47,3.07Z"></path><path d="M36.09,16.84l-1.61.31L36,7l1.61-.31Z"></path><path d="M39.77,6.31l2.55-.5c2-.4,2.86.43,2.53,2.58l-.58,3.78a4,4,0,0,1-3.49,3.76l-2.55.49Zm1.09,8.2c1.14-.22,1.63-.87,1.87-2.45l.44-2.93c.25-1.59-.07-2.07-1.22-1.85l-.79.16-1.1,7.23Z"></path><path d="M47.66,12.45l-.76,2.28L45.33,15l3.53-10.5,2.21-.43.57,9.7L50,14.13,49.88,12Zm2-6.19L48.13,11l1.7-.33Z"></path><path d="M20.68,42.49,17.84,43l2.1-13.82L14.47,43.7,12.79,44,11.55,30.86,9.45,44.68l-2.84.56L9.46,26.46l4.38-.86.88,11.28,4.49-12.32,4.32-.85Z"></path><path d="M28.4,37,27,41.26l-2.93.57,6.56-19.5,4.1-.8,1.06,18-3.08.6-.19-3.92Zm3.72-11.48-2.85,8.72,3.16-.62Z"></path><path d="M49.59,36.85l-2.66.52L43.6,25.89l-1.9,12.5-2.84.55,2.85-18.77,3-.59,3.1,10.73L49.6,18.63l2.85-.56Z"></path><path class="cls-2" d="M7.24,21.27l-1.61.32L7.17,11.48l4.77-.93L11.72,12l-3.16.61-.41,2.73,2.34-.46-.22,1.44-2.34.46Z"></path><path class="cls-2" d="M13.75,18.61,17,18l-.22,1.44-4.81.94,1.53-10.11,1.61-.31Z"></path><path class="cls-2" d="M24.47,14.79a5.11,5.11,0,0,1-1,2.52,4,4,0,0,1-2.4,1.41c-1,.19-1.73,0-2.1-.54a3.11,3.11,0,0,1-.23-2.28l.56-3.68a5,5,0,0,1,1-2.51A3.88,3.88,0,0,1,22.7,8.3a1.92,1.92,0,0,1,2.1.53A3.11,3.11,0,0,1,25,11.11Zm-4.07.77a2.36,2.36,0,0,0,0,1.34.79.79,0,0,0,.95.34,1.73,1.73,0,0,0,1.11-.74,3.11,3.11,0,0,0,.41-1.42l.55-3.63c.13-.81.13-1,0-1.34a.81.81,0,0,0-1-.34,1.78,1.78,0,0,0-1.11.75A3.34,3.34,0,0,0,21,11.94Z"></path><path class="cls-2" d="M27.62,17.3,26,17.61,27.55,7.5,30.06,7a2.37,2.37,0,0,1,2,.2,2,2,0,0,1,.59,2.11,4,4,0,0,1-1.8,2.9l.83,4.29L30,16.84,29.22,13l-1,.18Zm1.45-5.71A2.22,2.22,0,0,0,30.36,11a2.24,2.24,0,0,0,.58-1.31,1.26,1.26,0,0,0-.21-1.14c-.21-.19-.51-.2-1.2-.07l-.59.12-.47,3.07Z"></path><path class="cls-2" d="M35.09,15.84l-1.61.31L35,6l1.61-.31Z"></path><path class="cls-2" d="M38.77,5.31l2.55-.5c2-.4,2.86.43,2.53,2.58l-.58,3.78a4,4,0,0,1-3.49,3.76l-2.55.49Zm1.09,8.2c1.14-.22,1.63-.87,1.87-2.45l.44-2.93c.25-1.59-.07-2.07-1.22-1.85l-.79.16-1.1,7.23Z"></path><path class="cls-2" d="M46.66,11.45l-.76,2.28L44.33,14l3.53-10.5,2.21-.43.57,9.7L49,13.13,48.88,11Zm2-6.19L47.13,10l1.7-.33Z"></path><path class="cls-2" d="M19.68,41.49,16.84,42l2.1-13.82L13.47,42.7,11.79,43,10.55,29.86,8.45,43.68l-2.84.56L8.46,25.46l4.38-.86.88,11.28,4.49-12.32,4.32-.85Z"></path><path class="cls-2" d="M27.4,36,26,40.26l-2.93.57,6.56-19.5,4.1-.8,1.06,18-3.08.6-.19-3.92Zm3.72-11.48-2.85,8.72,3.16-.62Z"></path><path class="cls-2" d="M48.59,35.85l-2.66.52L42.6,24.89l-1.9,12.5-2.84.55,2.85-18.77,3-.59,3.1,10.73L48.6,17.63l2.85-.56Z"></path></g></g></svg> 